<?xml version="1.0" encoding="utf-8"?>
<!-- Generator: Adobe Illustrator 24.2.3, SVG Export Plug-In . SVG Version: 6.00 Build 0)  -->
<svg version="1.1" id="Layer_1" xmlns="http://www.w3.org/2000/svg" xmlns:xlink="http://www.w3.org/1999/xlink" x="0px" y="0px"
	 viewBox="0 0 110 165.4" style="enable-background:new 0 0 110 165.4;" xml:space="preserve">
<style type="text/css">
	.st0{fill:#311A12;}
	.st1{fill:#277EE6;}
	.st2{fill:#CC6A5A;}
	.st3{fill:#EF937E;}
	.st4{fill:#FFFFFF;}
	.st5{fill:#143441;}
	.st6{fill:#1D5C87;}
	.st7{clip-path:url(#SVGID_4_);}
	.st8{clip-path:url(#SVGID_6_);}
	.st9{fill:none;}
</style>
<path class="st0" d="M99,66.7V46.4C99,21.9,79.2,2.1,54.7,2.1c-24.5,0-44.3,19.8-44.3,44.3l0,0v20.3C10.3,66.7,99,66.7,99,66.7z"/>
<path class="st1" d="M91.4,163.4v-12.1c0-20.4-16.6-37-36.7-37s-36.7,16.7-36.7,37v12.1H91.4z"/>
<path class="st2" d="M62.6,115.6c0,4.5-3.6,8.1-8,8.1s-8-3.6-8-8.1v-5.2c0-4.5,3.6-8.1,8-8.1c4.4,0,8,3.6,8,8.1
	C62.6,110.4,62.6,115.6,62.6,115.6z"/>
<path class="st2" d="M103.9,75.4c0,5-4.8,9.1-10.6,9.1H16c-5.8,0-10.6-4.1-10.6-9.1c0-5,4.8-9.1,10.6-9.1h77.3
	C99.1,66.2,103.9,70.3,103.9,75.4z"/>
<path class="st3" d="M94.5,71.7c0,22.1-17.9,40.2-39.8,40.2S15,93.7,15,71.7V45.6C15,23.5,32.9,5.4,54.7,5.4s39.8,18.1,39.8,40.2
	V71.7z"/>
<path class="st0" d="M99,50v-3.5C99,21.9,79.2,2.1,54.7,2.1c-24.5,0-44.3,19.8-44.3,44.3l0,0V50H99z"/>
<path class="st0" d="M87.5,26.1H24.7c0,34.5,40,33.1,40,33.1h34.1L94.4,38C94.5,38.1,98.7,26.1,87.5,26.1z"/>
<path class="st4" d="M54.7,100.3c9.1,0,16.5-7.4,16.5-16.5H38.2C38.2,92.9,45.6,100.3,54.7,100.3z"/>
<path class="st0" d="M28.6,50c0,14.9-16.2,14.7-16.2,14.7V47.2C12.3,47.2,25.2,42.5,28.6,50z"/>
<rect x="7.4" y="61.5" class="st5" width="94.7" height="3.8"/>
<path class="st5" d="M87.4,77.7c0,1.1-0.9,2-2,2H60.6c-1.1,0-2-0.9-2-2V64.9c0-1.1,0.9-2,2-2h24.7c1.1,0,2,0.9,2,2V77.7z"/>
<g>
	<g>
		<path id="SVGID_1_" class="st6" d="M84.3,74.4c0,1.1-0.9,2-2,2H63.7c-1.1,0-2-0.9-2-2v-7.2c0-1.1,0.9-2,2-2h18.6c1.1,0,2,0.9,2,2
			L84.3,74.4L84.3,74.4z"/>
	</g>
	<g>
		<defs>
			<path id="SVGID_2_" d="M84.3,74.4c0,1.1-0.9,2-2,2H63.7c-1.1,0-2-0.9-2-2v-7.2c0-1.1,0.9-2,2-2h18.6c1.1,0,2,0.9,2,2L84.3,74.4
				L84.3,74.4z"/>
		</defs>
		<clipPath id="SVGID_4_">
			<use xlink:href="#SVGID_2_"  style="overflow:visible;"/>
		</clipPath>
		<g class="st7">
			
				<rect x="47.8" y="60.9" transform="matrix(0.7459 -0.666 0.666 0.7459 -27.8429 59.8343)" class="st6" width="33.4" height="11"/>
			
				<rect x="53.3" y="71.4" transform="matrix(0.7458 -0.6661 0.6661 0.7458 -30.5807 65.0943)" class="st6" width="33.4" height="2.5"/>
		</g>
	</g>
</g>
<path class="st5" d="M50.8,77.7c0,1.1-0.9,2-2,2H24.1c-1.1,0-2-0.9-2-2V64.9c0-1.1,0.9-2,2-2h24.7c1.1,0,2,0.9,2,2V77.7z"/>
<g>
	<g>
		<path id="SVGID_3_" class="st6" d="M47.7,74.4c0,1.1-0.9,2-2,2H27.1c-1.1,0-2-0.9-2-2v-7.2c0-1.1,0.9-2,2-2h18.6c1.1,0,2,0.9,2,2
			V74.4z"/>
	</g>
	<g>
		<defs>
			<path id="SVGID_5_" d="M47.7,74.4c0,1.1-0.9,2-2,2H27.1c-1.1,0-2-0.9-2-2v-7.2c0-1.1,0.9-2,2-2h18.6c1.1,0,2,0.9,2,2V74.4z"/>
		</defs>
		<clipPath id="SVGID_6_">
			<use xlink:href="#SVGID_5_"  style="overflow:visible;"/>
		</clipPath>
		<g class="st8">
			
				<rect x="11.2" y="60.9" transform="matrix(0.7459 -0.666 0.666 0.7459 -37.1804 35.4579)" class="st6" width="33.4" height="11"/>
			
				<rect x="16.8" y="71.4" transform="matrix(0.7458 -0.6661 0.6661 0.7458 -39.8617 40.7461)" class="st6" width="33.4" height="2.5"/>
		</g>
	</g>
</g>
<rect x="25.1" y="65.2" class="st9" width="22.6" height="11.2"/>
<rect x="49.1" y="69" class="st5" width="10.8" height="2.3"/>
</svg>
