<?xml version="1.0" encoding="utf-8"?>
<!-- Generator: Adobe Illustrator 24.2.3, SVG Export Plug-In . SVG Version: 6.00 Build 0)  -->
<svg version="1.1" id="Layer_1" xmlns="http://www.w3.org/2000/svg" xmlns:xlink="http://www.w3.org/1999/xlink" x="0px" y="0px"
	 viewBox="0 0 110 165" style="enable-background:new 0 0 110 165;" xml:space="preserve">
<style type="text/css">
	.st0{fill:#E3482C;}
	.st1{fill:#2BC9DE;}
	.st2{fill:#EF937E;}
	.st3{fill:#F8C09D;}
	.st4{fill:#FFFFFF;}
	.st5{fill:#F76B00;}
	.st6{fill:#29A336;}
	.st7{fill:#FED883;}
</style>
<path class="st0" d="M55.5,1C29,1,7.5,20.8,7.5,45.3l0,0v71l0,0c0,24.5,21.5,44.3,48,44.3s48-19.8,48-44.3v-71
	C103.5,20.8,82,1,55.5,1z"/>
<path class="st1" d="M95.2,164v-12c0-20.3-17.9-37-39.7-37c-21.9,0-39.7,16.6-39.7,37v12H95.2z"/>
<path class="st2" d="M64.2,116.3c0,4.4-3.9,8.1-8.7,8.1s-8.7-3.6-8.7-8.1v-5.2c0-4.4,3.9-8.1,8.7-8.1s8.7,3.6,8.7,8.1V116.3z"/>
<path class="st2" d="M108.7,74.8c0,5-5.1,9.1-11.4,9.1H13.7c-6.3,0-11.4-4.1-11.4-9.1s5.1-9.1,11.4-9.1h83.6
	C103.6,65.7,108.7,69.8,108.7,74.8z"/>
<path class="st3" d="M98.6,72.5c0,22.1-19.4,40.1-43.1,40.1s-43.1-18-43.1-40.1V46.4c0-22.1,19.4-40.1,43.1-40.1s43.1,18,43.1,40.1
	V72.5z"/>
<path class="st4" d="M57.6,101c9.9,0,17.8-7.4,17.8-16.5H39.8C39.8,93.7,47.8,101,57.6,101z"/>
<path class="st5" d="M104.8,57.6V46.5c0-25.1-22-45.5-49.3-45.5S6.2,21.4,6.2,46.5l0,0v11L104.8,57.6L104.8,57.6z"/>
<path class="st0" d="M49.6,5.7l-4.5,37c0,0-2.6,21.7,26.7,24.7l29.4,3C101.2,70.5,108.3,11.8,49.6,5.7z"/>
<path class="st5" d="M49.6,5.7V43c0,0,0,21.8,29.5,21.8h29.5C108.7,64.8,108.7,5.7,49.6,5.7z"/>
<g>
	<path class="st6" d="M31.4,72.1c-3.3,0-6.1,2.5-6.1,5.6h12.1C37.5,74.7,34.8,72.1,31.4,72.1z"/>
	<path class="st6" d="M79.6,72.1c-3.3,0-6.1,2.5-6.1,5.6h12.1C85.6,74.7,82.9,72.1,79.6,72.1z"/>
</g>
<path class="st7" d="M106.1,61c-1.9-14.7-10.8-49.2-52.4-52.3v2.2C92,14.7,101.6,45.7,104,61H106.1z"/>
<path class="st4" d="M30.9,72.7c0,0.6-0.5,1.1-1.2,1.1c-0.6,0-1.2-0.5-1.2-1.1s0.5-1.1,1.2-1.1S30.9,72.1,30.9,72.7z"/>
<path class="st4" d="M79.2,72.7c0,0.6-0.5,1.1-1.2,1.1c-0.6,0-1.2-0.5-1.2-1.1s0.5-1.1,1.2-1.1C78.6,71.6,79.2,72.1,79.2,72.7z"/>
</svg>
