<?xml version="1.0" encoding="utf-8"?>
<!-- Generator: Adobe Illustrator 24.2.3, SVG Export Plug-In . SVG Version: 6.00 Build 0)  -->
<svg version="1.1" id="Layer_1" xmlns="http://www.w3.org/2000/svg" xmlns:xlink="http://www.w3.org/1999/xlink" x="0px" y="0px"
	 viewBox="0 0 110 165" style="enable-background:new 0 0 110 165;" xml:space="preserve">
<style type="text/css">
	.st0{fill:#7D8E9E;}
	.st1{fill:#30B861;}
	.st2{fill:#EF937E;}
	.st3{fill:#F8C09D;}
	.st4{fill:#AABFD0;}
	.st5{fill:#D0E2EE;}
	.st6{fill:#5B6571;}
	.st7{fill:#143441;}
	.st8{clip-path:url(#SVGID_2_);}
	.st9{fill:#BAE9F4;}
	.st10{clip-path:url(#SVGID_4_);}
	.st11{fill:#FFFFFF;}
</style>
<g>
	<path class="st0" d="M95.1,76V57.8c0-21.9-17.7-39.6-39.6-39.6c-21.9,0-39.6,17.7-39.6,39.6c0,0,0,0,0,0V76H95.1z"/>
	<path class="st1" d="M88.3,164v-10.7c0-18.2-14.8-33.1-32.8-33.1c-18,0-32.8,14.9-32.8,33.1V164H88.3z"/>
	<path class="st2" d="M62.6,121.3c0,4-3.2,7.2-7.1,7.2c-3.9,0-7.1-3.2-7.1-7.2v-4.7c0-4,3.2-7.2,7.1-7.2c3.9,0,7.1,3.2,7.1,7.2
		V121.3z"/>
	<path class="st2" d="M99.4,80c0,4.5-4.2,8.1-9.4,8.1H21c-5.2,0-9.4-3.7-9.4-8.1c0-4.5,4.2-8.1,9.4-8.1h69
		C95.2,71.9,99.4,75.6,99.4,80z"/>
	<path class="st3" d="M91,82.1c0,19.7-16,35.8-35.5,35.8C36,118,20,101.8,20,82.1V58.8C20,39.1,36,23,55.5,23C75,23,91,39.1,91,58.8
		V82.1z"/>
	<path class="st4" d="M80,28.9c0,13.5-11,20.6-24.5,20.6C42,49.5,31,42.5,31,28.9C31,15.4,42,4.5,55.5,4.5C69,4.5,80,15.4,80,28.9z"
		/>
	<path class="st4" d="M94.9,53.7C92.8,33.8,76,18.2,55.5,18.2c-20.5,0-37.3,15.6-39.4,35.5H94.9z"/>
	<path class="st5" d="M53.8,22.2c18.4,0,33.6,13.6,36.1,31.2h1.9C89.9,35,74.4,20.7,55.5,20.7c-9.7,0-18.4,3.8-25,9.9
		C36.9,25.3,45,22.2,53.8,22.2z"/>
	<path class="st6" d="M70,15.3c-0.4,0-0.7-0.2-0.9-0.5c-0.4-0.5-0.3-1.3,0.2-1.7l10.5-8.2c0.5-0.4,1.3-0.3,1.7,0.2
		c0.4,0.5,0.3,1.3-0.2,1.7l-10.5,8.2C70.5,15.2,70.3,15.3,70,15.3L70,15.3z"/>
	<path class="st6" d="M41.2,13.1c-0.3,0-0.6-0.1-0.8-0.3l-8.7-7.4c-0.5-0.4-0.6-1.2-0.1-1.7c0.4-0.5,1.2-0.6,1.7-0.1L42,11
		c0.5,0.4,0.6,1.2,0.1,1.7C41.9,13,41.5,13.1,41.2,13.1L41.2,13.1z"/>
	<path class="st6" d="M36,4.5C36,6.4,34.4,8,32.5,8c-1.9,0-3.5-1.6-3.5-3.5c0-1.9,1.6-3.5,3.5-3.5C34.4,1,36,2.6,36,4.5z"/>
	<path class="st6" d="M84,5.9c0,1.9-1.6,3.5-3.5,3.5c-1.9,0-3.5-1.6-3.5-3.5c0-1.9,1.6-3.5,3.5-3.5C82.4,2.4,84,4,84,5.9z"/>
	<g>
		<rect x="13.9" y="69.8" class="st7" width="83.3" height="4.3"/>
		<g>
			<path class="st7" d="M38.5,60.3c-7.1,0-12.9,5.8-12.9,12.9c0,7.1,5.8,12.9,12.9,12.9c7.1,0,12.9-5.8,12.9-12.9
				C51.4,66,45.6,60.3,38.5,60.3z M38.5,82.8c-5.3,0-9.6-4.3-9.6-9.6c0-5.3,4.3-9.6,9.6-9.6c5.3,0,9.6,4.3,9.6,9.6
				C48,78.5,43.8,82.8,38.5,82.8z"/>
			<g>
				<defs>
					<path id="SVGID_1_" d="M48,73.2c0,5.3-4.3,9.6-9.6,9.6c-5.3,0-9.6-4.3-9.6-9.6c0-5.3,4.3-9.6,9.6-9.6
						C43.8,63.6,48,67.9,48,73.2z"/>
				</defs>
				<use xlink:href="#SVGID_1_"  style="overflow:visible;fill:#87D1EE;"/>
				<clipPath id="SVGID_2_">
					<use xlink:href="#SVGID_1_"  style="overflow:visible;"/>
				</clipPath>
				<g class="st8">
					
						<rect x="12.9" y="62.4" transform="matrix(0.678 -0.735 0.735 0.678 -39.9917 45.1019)" class="st9" width="37.3" height="11.5"/>
					
						<rect x="19.4" y="73.2" transform="matrix(0.6777 -0.7353 0.7353 0.6777 -42.3205 51.8582)" class="st9" width="37.3" height="2.1"/>
				</g>
			</g>
		</g>
		<g>
			<path class="st7" d="M72.5,60.3c-7.1,0-12.9,5.8-12.9,12.9c0,7.1,5.8,12.9,12.9,12.9c7.1,0,12.9-5.8,12.9-12.9
				C85.4,66,79.6,60.3,72.5,60.3z M72.5,82.8c-5.3,0-9.6-4.3-9.6-9.6c0-5.3,4.3-9.6,9.6-9.6c5.3,0,9.6,4.3,9.6,9.6
				C82,78.5,77.8,82.8,72.5,82.8z"/>
			<g>
				<defs>
					<path id="SVGID_3_" d="M82,73.2c0,5.3-4.3,9.6-9.6,9.6c-5.3,0-9.6-4.3-9.6-9.6c0-5.3,4.3-9.6,9.6-9.6
						C77.8,63.6,82,67.9,82,73.2z"/>
				</defs>
				<use xlink:href="#SVGID_3_"  style="overflow:visible;fill:#87D1EE;"/>
				<clipPath id="SVGID_4_">
					<use xlink:href="#SVGID_3_"  style="overflow:visible;"/>
				</clipPath>
				<g class="st10">
					
						<rect x="46.9" y="62.4" transform="matrix(0.678 -0.735 0.735 0.678 -29.0438 70.0948)" class="st9" width="37.3" height="11.5"/>
					
						<rect x="53.4" y="73.2" transform="matrix(0.6777 -0.7353 0.7353 0.6777 -31.3626 76.8603)" class="st9" width="37.3" height="2.1"/>
				</g>
			</g>
		</g>
	</g>
	<path class="st11" d="M55.5,105.7c8.1,0,14.7-6.6,14.7-14.7H40.8C40.8,99.1,47.4,105.7,55.5,105.7z"/>
</g>
</svg>
