<?xml version="1.0" encoding="utf-8"?>
<!-- Generator: Adobe Illustrator 24.2.3, SVG Export Plug-In . SVG Version: 6.00 Build 0)  -->
<svg version="1.1" id="Layer_1" xmlns="http://www.w3.org/2000/svg" xmlns:xlink="http://www.w3.org/1999/xlink" x="0px" y="0px"
	 viewBox="0 0 104 161" style="enable-background:new 0 0 104 161;" xml:space="preserve">
<style type="text/css">
	.st0{fill:#143441;}
	.st1{fill:#2BB3CD;}
	.st2{fill:#EF937E;}
	.st3{fill:#F8C09D;}
	.st4{fill:#B31E48;}
	.st5{clip-path:url(#SVGID_2_);}
	.st6{fill:#65FC69;}
	.st7{clip-path:url(#SVGID_4_);}
	.st8{fill:none;}
	.st9{fill:#FFFFFF;}
</style>
<path class="st0" d="M98.4,59.1c0,5.6-4.6,10.1-10.1,10.1H16.7c-5.6,0-10.1-4.6-10.1-10.1V33.6c0-5.6,4.6-10.1,10.1-10.1h71.6
	c5.6,0,10.1,4.6,10.1,10.1V59.1z"/>
<path class="st1" d="M89.6,160.3v-12.2c0-20.6-16.7-37.4-37.1-37.4c-20.4,0-37.1,16.8-37.1,37.4v12.2H89.6z"/>
<path class="st2" d="M60.6,112c0,4.5-3.6,8.2-8.1,8.2c-4.4,0-8.1-3.7-8.1-8.2v-5.3c0-4.5,3.6-8.2,8.1-8.2c4.4,0,8.1,3.7,8.1,8.2V112
	z"/>
<path class="st2" d="M102.2,65.3c0,5.1-4.8,9.2-10.6,9.2H13.4c-5.9,0-10.6-4.2-10.6-9.2c0-5.1,4.8-9.2,10.6-9.2h78.1
	C97.4,56.1,102.2,60.2,102.2,65.3z"/>
<path class="st0" d="M95.1,46.4V32.7h3.3c3.3,0,3.3,3.4,3.3,3.4v14h-3.3C95.1,50.1,95.1,46.4,95.1,46.4z"/>
<path class="st0" d="M9.9,46.4V32.7H6.6c-3.3,0-3.3,3.4-3.3,3.4v14h3.3C9.9,50.1,9.9,46.4,9.9,46.4z"/>
<path class="st0" d="M21.1,60.9c0,3.3-2.6,6.1-5.7,6.1c-3.1,0-5.7-2.7-5.7-6.1v-30c0-3.3,2.6-6.1,5.7-6.1c3.1,0,5.7,2.7,5.7,6.1
	V60.9z"/>
<path class="st0" d="M83.9,60.9c0,3.3,2.6,6.1,5.7,6.1c3.1,0,5.7-2.7,5.7-6.1v-30c0-3.3-2.6-6.1-5.7-6.1c-3.1,0-5.7,2.7-5.7,6.1
	V60.9z"/>
<path class="st3" d="M92.7,67.6c0,22.3-18.1,40.6-40.2,40.6c-22.1,0-40.2-18.3-40.2-40.6V41.3C12.3,19,30.4,0.7,52.5,0.7
	c22.1,0,40.2,18.3,40.2,40.6V67.6z"/>
<path class="st0" d="M16.8,32.7c2.7,0,4.9-2.1,4.9-4.6c0-2.5-2.2-4.6-4.9-4.6h-0.4c-1.4,1.4-2,2.9-2.6,4.4c-0.5,1.6-0.9,3.4-0.6,4.8
	H16.8z"/>
<path class="st0" d="M88.2,32.7c-2.7,0-4.9-2.1-4.9-4.6c0-2.5,2.2-4.6,4.9-4.6h0.4c1.4,1.4,2,2.9,2.6,4.4c0.5,1.6,0.9,3.4,0.6,4.8
	H88.2z"/>
<rect x="4.7" y="53" class="st4" width="95.7" height="3.8"/>
<g>
	<path class="st4" d="M48.5,69.4c0,1.1-0.9,2-2,2h-25c-1.1,0-2-0.9-2-2V56.5c0-1.1,0.9-2,2-2h25c1.1,0,2,0.9,2,2V69.4z"/>
	<g>
		<defs>
			<path id="SVGID_1_" d="M45.4,66.2c0,1.1-0.9,2-2,2H24.6c-1.1,0-2-0.9-2-2v-7.3c0-1.1,0.9-2,2-2h18.8c1.1,0,2,0.9,2,2V66.2z"/>
		</defs>
		<use xlink:href="#SVGID_1_"  style="overflow:visible;fill:#45CF4D;"/>
		<clipPath id="SVGID_2_">
			<use xlink:href="#SVGID_1_"  style="overflow:visible;"/>
		</clipPath>
		<g class="st5">
			
				<rect x="8.5" y="52.5" transform="matrix(0.7459 -0.6661 0.6661 0.7459 -32.2076 31.6465)" class="st6" width="33.8" height="11.1"/>
			
				<rect x="14.1" y="63.1" transform="matrix(0.7459 -0.6661 0.6661 0.7459 -34.9668 36.9812)" class="st6" width="33.8" height="2.5"/>
		</g>
	</g>
</g>
<g>
	<path class="st4" d="M85.5,69.4c0,1.1-0.9,2-2,2h-25c-1.1,0-2-0.9-2-2V56.5c0-1.1,0.9-2,2-2h25c1.1,0,2,0.9,2,2V69.4z"/>
	<g>
		<defs>
			<path id="SVGID_3_" d="M82.4,66.2c0,1.1-0.9,2-2,2H61.6c-1.1,0-2-0.9-2-2v-7.3c0-1.1,0.9-2,2-2h18.8c1.1,0,2,0.9,2,2V66.2z"/>
		</defs>
		<use xlink:href="#SVGID_3_"  style="overflow:visible;fill:#45CF4D;"/>
		<clipPath id="SVGID_4_">
			<use xlink:href="#SVGID_3_"  style="overflow:visible;"/>
		</clipPath>
		<g class="st7">
			
				<rect x="45.5" y="52.5" transform="matrix(0.7459 -0.666 0.666 0.7459 -22.7964 56.3141)" class="st6" width="33.8" height="11.1"/>
			
				<rect x="51.1" y="63.1" transform="matrix(0.7458 -0.6661 0.6661 0.7458 -25.5541 61.6543)" class="st6" width="33.8" height="2.5"/>
		</g>
	</g>
</g>
<rect x="22.6" y="56.8" class="st8" width="22.8" height="11.4"/>
<rect x="46.9" y="60.7" class="st4" width="11" height="2.3"/>
<path class="st9" d="M52.5,96.2c9.2,0,16.7-7.5,16.7-16.7H35.8C35.8,88.7,43.3,96.2,52.5,96.2z"/>
<rect x="47.8" y="77.8" class="st3" width="4.1" height="8.6"/>
<path class="st0" d="M37.9,41.1H19.4v2.8c0,6.8,7.7,6.8,7.7,6.8h18.3v-2.8C45.4,41.1,37.9,41.1,37.9,41.1z"/>
<path class="st0" d="M67.1,41.1h18.5v2.8c0,6.8-7.7,6.8-7.7,6.8H59.6v-2.8C59.6,41.1,67.1,41.1,67.1,41.1z"/>
</svg>
