<?xml version="1.0" encoding="utf-8"?>
<!-- Generator: Adobe Illustrator 24.2.3, SVG Export Plug-In . SVG Version: 6.00 Build 0)  -->
<svg version="1.1" id="Layer_1" xmlns="http://www.w3.org/2000/svg" xmlns:xlink="http://www.w3.org/1999/xlink" x="0px" y="0px"
	 viewBox="0 0 110 165" style="enable-background:new 0 0 110 165;" xml:space="preserve">
<style type="text/css">
	.st0{fill:#311A12;}
	.st1{fill:#A9FFFD;}
	.st2{fill:#EA8786;}
	.st3{fill:#EAB0A3;}
	.st4{fill:#6D5751;}
	.st5{fill:#FFFFFF;}
</style>
<path class="st0" d="M57.6,7.6C34.6,7.6,16,26.2,16,49.2c0,0,0,0,0,0v66.6c0,0,0,0,0,0c0,23,18.6,41.6,41.6,41.6
	c23,0,41.6-18.6,41.6-41.6V49.2C99.2,26.2,80.5,7.6,57.6,7.6z"/>
<path class="st1" d="M92,160.8v-11.3c0-19.1-15.5-34.7-34.4-34.7c-18.9,0-34.4,15.6-34.4,34.7v11.3H92z"/>
<path class="st2" d="M65.1,116c0,4.2-3.4,7.6-7.5,7.6c-4.1,0-7.5-3.4-7.5-7.6V111c0-4.2,3.4-7.6,7.5-7.6c4.1,0,7.5,3.4,7.5,7.6V116z
	"/>
<path class="st2" d="M103.7,78.2c0,4.7-4.4,8.6-9.9,8.6H21.3c-5.4,0-9.9-3.9-9.9-8.6c0-4.7,4.4-8.6,9.9-8.6h72.5
	C99.2,69.7,103.7,73.5,103.7,78.2z"/>
<path class="st3" d="M94.9,74.8c0,20.7-16.8,37.6-37.3,37.6c-20.5,0-37.3-16.9-37.3-37.6V50.3c0-20.7,16.8-37.6,37.3-37.6
	c20.5,0,37.3,16.9,37.3,37.6V74.8z"/>
<path class="st0" d="M99.2,31.1L99.2,31.1c-0.4-15.5-12.4-28-27.2-28c-4.7,0-9.1,1.3-13,3.5c-1.9-0.3-7.7-1.9-11.5-1.7
	C31.7,5.8,20.2,21,20.2,32.1c0,11.1,2.9,14.7,2.9,14.7l20.2,8.5c0,0,15.6,5,16.7-8.7c1.6,5.4,6.2,13.2,19.2,13.2h20V31.1z"/>
<g>
	<path class="st4" d="M96.3,31.4C96,17.3,84.4,5.9,70.1,5.9c-4.5,0-8.8,1.2-12.6,3.2c-1.8-0.3-7.5-1.8-11.2-1.6
		c-12.2,0.7-21.7,9.6-25,18.3c4-7.8,12.6-15.1,23.3-15.7c3.6-0.2,9.1,1.3,10.9,1.6c3.6-2,7.8-3.2,12.3-3.2c14,0,25.3,11.4,25.7,25.5
		h0v23.5h2.7L96.3,31.4L96.3,31.4z"/>
</g>
<g>
	<path class="st0" d="M38.5,75.2c2.3,0,4.3,0.8,5.7,2.1c0-3.1-2.6-5.7-5.7-5.7c-3.1,0-5.7,2.5-5.7,5.7C34.2,76,36.2,75.2,38.5,75.2z
		"/>
	<path class="st0" d="M76.6,75.2c2.3,0,4.3,0.8,5.7,2.1c0-3.1-2.6-5.7-5.7-5.7c-3.1,0-5.7,2.5-5.7,5.7C72.2,76,74.3,75.2,76.6,75.2z
		"/>
</g>
<path class="st5" d="M57.6,101.8c8.5,0,15.5-6.9,15.5-15.5H42.1C42.1,94.9,49,101.8,57.6,101.8z"/>
<path class="st4" d="M8.2,51.3l36.4,7.1c0,0,21.3,4.2,26.5-22.4l5.2-26.6C76.3,9.3,18.7-2,8.2,51.3z"/>
<path class="st0" d="M8.2,52.4l36.9,3.1c0,0,21.6,1.8,23.9-25.3l2.2-27.1C71.2,3.1,12.7-1.7,8.2,52.4z"/>
<circle class="st0" cx="56.9" cy="66.1" r="1.1"/>
</svg>
