<?xml version="1.0" encoding="utf-8"?>
<!-- Generator: Adobe Illustrator 24.2.3, SVG Export Plug-In . SVG Version: 6.00 Build 0)  -->
<svg version="1.1" id="Layer_1" xmlns="http://www.w3.org/2000/svg" xmlns:xlink="http://www.w3.org/1999/xlink" x="0px" y="0px"
	 viewBox="0 0 104 161" style="enable-background:new 0 0 104 161;" xml:space="preserve">
<style type="text/css">
	.st0{fill:#FEDB1F;}
	.st1{fill:#277EE6;}
	.st2{fill:#D37852;}
	.st3{fill:#EDA57D;}
	.st4{fill:#FFFFFF;}
	.st5{fill:#FEA638;}
	.st6{fill:#FFF79C;}
	.st7{fill:#EFAB84;}
	.st8{fill:#2BB3CD;}
</style>
<path class="st0" d="M48,13.7c0,0-33.1,0-33.1,31.4v37H93V13.7H48z"/>
<path class="st1" d="M85.5,159.4V149c0-17.5-14.2-31.8-31.5-31.8c-17.4,0-31.5,14.3-31.5,31.8v10.3H85.5z"/>
<path class="st2" d="M60.8,118.4c0,3.8-3.1,6.9-6.9,6.9c-3.8,0-6.9-3.1-6.9-6.9v-4.5c0-3.8,3.1-6.9,6.9-6.9c3.8,0,6.9,3.1,6.9,6.9
	V118.4z"/>
<path class="st2" d="M96.2,78.6c0,4.3-4.1,7.8-9,7.8H20.7c-5,0-9-3.5-9-7.8c0-4.3,4.1-7.8,9-7.8h66.4C92.1,70.8,96.2,74.3,96.2,78.6
	z"/>
<path class="st3" d="M88.1,80.6c0,19-15.4,34.5-34.2,34.5c-18.8,0-34.2-15.5-34.2-34.5V58.2c0-19,15.4-34.5,34.2-34.5
	c18.8,0,34.2,15.5,34.2,34.5V80.6z"/>
<path class="st4" d="M53.9,104.3c7.8,0,14.2-6.3,14.2-14.2H39.8C39.8,98,46.1,104.3,53.9,104.3z"/>
<polygon class="st0" points="17.6,58.9 90,58.9 90,23.7 48.8,18 17.6,33.5 "/>
<path class="st5" d="M45.3,33.2l-32.6-4.8l-1.4,9.3c-2,13.5,12.5,15.6,12.5,15.6l38.3,5.6l0.9-5.8C65.5,36.2,45.3,33.2,45.3,33.2z"
	/>
<path class="st0" d="M41.8,35.9H8.8v9.4c0,13.6,14.7,13.6,14.7,13.6h38.7v-5.8C62.2,35.9,41.8,35.9,41.8,35.9z"/>
<path class="st6" d="M39.6,38.4H12.8v2h25.1c0,0,19.8,0,20.4,16.4H60v-1.2C60,38.4,39.6,38.4,39.6,38.4z"/>
<path class="st5" d="M73.8,11.3c2-3.4,0.8-7.7-2.6-9.7l-7.2,12.3C67.5,15.9,71.9,14.7,73.8,11.3z"/>
<path class="st0" d="M73.7,16.8c3.5-1.9,4.8-6.2,2.9-9.6l-12.5,6.7C66,17.4,70.3,18.6,73.7,16.8z"/>
<path class="st7" d="M80.8,58.9c7.3,0,7.5-7.5,7.5-7.5l-0.2,11.1C88.1,62.5,81.4,64.3,80.8,58.9z"/>
<path class="st8" d="M40,81.4c0.4-0.7,0.7-1.5,0.7-2.4c0-2.6-2.1-4.7-4.7-4.7c-2.6,0-4.7,2.1-4.7,4.7c0,1.2,0.4,2.2,1.1,3L40,81.4z"
	/>
<path class="st8" d="M67.9,81.4c-0.4-0.7-0.7-1.5-0.7-2.4c0-2.6,2.1-4.7,4.7-4.7c2.6,0,4.7,2.1,4.7,4.7c0,1.2-0.4,2.2-1.1,3
	L67.9,81.4z"/>
<path class="st4" d="M33.6,76.8c0,0.5,0.4,0.9,0.9,0.9c0.5,0,0.9-0.4,0.9-0.9c0-0.5-0.4-0.9-0.9-0.9C34.1,75.9,33.6,76.3,33.6,76.8z
	"/>
<path class="st4" d="M69.3,76.8c0,0.5,0.4,0.9,0.9,0.9c0.5,0,0.9-0.4,0.9-0.9c0-0.5-0.4-0.9-0.9-0.9C69.7,75.9,69.3,76.3,69.3,76.8z
	"/>
</svg>
