<?xml version="1.0" encoding="utf-8"?>
<!-- Generator: Adobe Illustrator 24.2.3, SVG Export Plug-In . SVG Version: 6.00 Build 0)  -->
<svg version="1.1" id="Layer_1" xmlns="http://www.w3.org/2000/svg" xmlns:xlink="http://www.w3.org/1999/xlink" x="0px" y="0px"
	 viewBox="0 0 104 160" style="enable-background:new 0 0 104 160;" xml:space="preserve">
<style type="text/css">
	.st0{fill:#EC7523;}
	.st1{fill:#DC1C4B;}
	.st2{fill:#EA8786;}
	.st3{fill:#EAB0A3;}
	.st4{fill:#FEBE40;}
	.st5{fill:#FEE575;}
	.st6{fill:#311A12;}
	.st7{fill:#FFFFFF;}
</style>
<g>
	<path class="st0" d="M52.5,6.4C29.6,6.4,11,25,11,47.9c0,0,0,0,0,0v66.5c0,0,0,0,0,0c0,22.9,18.6,41.5,41.5,41.5
		c22.9,0,41.5-18.6,41.5-41.5V47.9C94,25,75.4,6.4,52.5,6.4z"/>
	<path class="st1" d="M86.8,159.1v-11.3c0-19-15.5-34.6-34.3-34.6c-18.9,0-34.3,15.6-34.3,34.6v11.3H86.8z"/>
	<path class="st2" d="M60,114.4c0,4.1-3.4,7.5-7.5,7.5c-4.1,0-7.5-3.4-7.5-7.5v-4.9c0-4.1,3.4-7.5,7.5-7.5c4.1,0,7.5,3.4,7.5,7.5
		V114.4z"/>
	<path class="st2" d="M98.5,76.8c0,4.7-4.4,8.5-9.8,8.5H16.4c-5.4,0-9.8-3.8-9.8-8.5c0-4.7,4.4-8.5,9.8-8.5h72.3
		C94.1,68.3,98.5,72.1,98.5,76.8z"/>
	<path class="st3" d="M89.7,73.4c0,20.6-16.8,37.5-37.2,37.5C32,110.9,15.3,94,15.3,73.4V49c0-20.6,16.8-37.5,37.2-37.5
		C73,11.4,89.7,28.3,89.7,49V73.4z"/>
	<path class="st4" d="M95.3,30.1L95.3,30.1C94.8,14.5,82,1.9,66.3,1.9c-5,0-9.7,1.3-13.9,3.5c-2-0.3-8.3-2-12.3-1.7
		C23.2,4.6,11,19.9,11,31c0,11.1,0,28.4,0,28.4h24.3c0,0,16.9,0,18.1-13.8c1.7,5.5,6.6,13.3,20.4,13.3h21.4V30.1z"/>
	<g>
		<path class="st5" d="M91.2,30.2C90.8,16,79.2,4.7,65,4.7c-4.5,0-8.8,1.2-12.5,3.2C50.7,7.6,45,6.1,41.4,6.3
			C29.2,7,19.8,15.9,16.4,24.5c4-7.8,12.6-15,23.3-15.6c3.6-0.2,9.1,1.3,10.9,1.6c3.6-2,7.8-3.2,12.3-3.2
			c13.9,0,25.2,11.3,25.6,25.5h0v23.4h2.7L91.2,30.2L91.2,30.2z"/>
	</g>
	<g>
		<path class="st6" d="M33.5,73.8c2.3,0,4.3,0.8,5.7,2.1c0-3.1-2.5-5.6-5.7-5.6c-3.1,0-5.6,2.5-5.7,5.6
			C29.2,74.6,31.2,73.8,33.5,73.8z"/>
		<path class="st6" d="M71.5,73.8c2.3,0,4.3,0.8,5.7,2.1c0-3.1-2.5-5.6-5.7-5.6c-3.1,0-5.6,2.5-5.7,5.6
			C67.1,74.6,69.2,73.8,71.5,73.8z"/>
	</g>
	<path class="st7" d="M52.5,100.3c8.5,0,15.4-6.9,15.4-15.4H37.1C37.1,93.4,44,100.3,52.5,100.3z"/>
</g>
</svg>
