<?xml version="1.0" encoding="utf-8"?>
<!-- Generator: Adobe Illustrator 24.3.0, SVG Export Plug-In . SVG Version: 6.00 Build 0)  -->
<svg version="1.1" id="Layer_1" xmlns="http://www.w3.org/2000/svg" xmlns:xlink="http://www.w3.org/1999/xlink" x="0px" y="0px"
	 viewBox="0 0 595 620" style="enable-background:new 0 0 595 620;" xml:space="preserve">
<style type="text/css">
	.st0{fill:#1A78D6;}
	.st1{fill:#277EE6;}
	.st2{fill:url(#SVGID_1_);}
	.st3{fill:url(#SVGID_2_);}
</style>
<g id="Эллипс_539_копия_4_1_">
	<g id="Эллипс_539_копия_4">
		<g>
			<path class="st0" d="M53.5,607c10.2,0,18.5-8.3,18.5-18.5S63.7,570,53.5,570S35,578.3,35,588.5S43.3,607,53.5,607z M513,493.5
				c0,18.5,15,33.5,33.5,33.5s33.5-15,33.5-33.5S565,460,546.5,460S513,475,513,493.5z M124.6,149.9c2.7,0,4.9-2.2,4.9-4.9
				c0-2.7-2.2-4.9-4.9-4.9c-2.7,0-4.9,2.2-4.9,4.9S121.9,149.9,124.6,149.9z M515.5,117c19.1,0,34.5-15.4,34.5-34.5
				S534.6,48,515.5,48C496.4,48,481,63.4,481,82.5S496.4,117,515.5,117z M224.9,397.2c63.6,0,115.1-51.5,115.1-115
				s-51.5-115-115.1-115s-115.1,51.5-115.1,115S161.3,397.2,224.9,397.2z"/>
		</g>
	</g>
</g>
<circle class="st1" cx="254.7" cy="76.9" r="8.6"/>
<circle class="st1" cx="306.6" cy="468.6" r="8.6"/>
<path class="st1" d="M204.8,241.4c0-1.2-0.2-2.4-0.2-3.7C204.6,237.7,204.6,239.1,204.8,241.4z"/>
<g>
	<linearGradient id="SVGID_1_" gradientUnits="userSpaceOnUse" x1="396.3468" y1="386.2601" x2="248.8761" y2="340.7444">
		<stop  offset="0" style="stop-color:#FFFFFF"/>
		<stop  offset="1" style="stop-color:#E6E6E6"/>
	</linearGradient>
	<path class="st2" d="M204.8,241.4c0.8,20.7,8.7,37.9,24.9,50.3c14.5,11.9,35.6,18.4,67.2,23.7c56.6,10.5,56.6,23.7,56.6,36.9
		c0,31.6-30.3,38.2-55.3,38.2c-34.2,0-55.3-18.4-55.3-46.1v-7.9h-47.4v7.9c0,54,40.8,90.9,102.7,90.9s101.4-31.6,101.4-83
		c-0.2-10.2-2-18.9-5-26.5c-12.3-12.1-39.2-27.4-97.1-27.4C216.3,298.4,206.1,254.4,204.8,241.4z"/>
	<linearGradient id="SVGID_2_" gradientUnits="userSpaceOnUse" x1="197.2782" y1="270.0291" x2="369.3274" y2="237.2578">
		<stop  offset="0" style="stop-color:#FFFFFF"/>
		<stop  offset="1" style="stop-color:#E6E6E6"/>
	</linearGradient>
	<path class="st3" d="M303.4,273.3c-51.4-10.5-55.3-19.8-55.3-34.2c0-29,30.3-32.9,48.7-32.9c31.6,0,48.7,14.5,48.7,39.5v7.9H393
		v-7.9c0-52.7-36.9-85.6-94.8-85.6c-56.6,0-93.5,31.6-93.5,77.7c0,1.2,0.1,2.4,0.2,3.7c1.2,13.1,11.5,57,92.7,57
		c57.9,0,84.8,15.3,97.1,27.4C381.2,291.1,342.3,280.8,303.4,273.3z"/>
</g>
</svg>
