<?xml version="1.0" encoding="utf-8"?>
<!-- Generator: Adobe Illustrator 24.3.0, SVG Export Plug-In . SVG Version: 6.00 Build 0)  -->
<svg version="1.1" id="Layer_1" xmlns="http://www.w3.org/2000/svg" xmlns:xlink="http://www.w3.org/1999/xlink" x="0px" y="0px"
	 viewBox="0 0 50 50" style="enable-background:new 0 0 50 50;" xml:space="preserve">
<style type="text/css">
	.st0{fill:url(#SVGID_1_);}
	.st1{fill:#277EE6;}
	.st2{fill:url(#SVGID_2_);}
</style>
<g>
	<linearGradient id="SVGID_1_" gradientUnits="userSpaceOnUse" x1="40.8428" y1="9.2415" x2="0.1127" y2="55.3511">
		<stop  offset="0" style="stop-color:#0081FF"/>
		<stop  offset="0.353" style="stop-color:#0B9CFB"/>
		<stop  offset="0.828" style="stop-color:#18BDF7"/>
	</linearGradient>
	<path class="st0" d="M7.1,14.9c0.1,3.7,1.6,6.8,4.5,9c2.6,2.1,6.4,3.3,12,4.3c10.2,1.9,10.2,4.3,10.2,6.6c0,5.7-5.4,6.9-9.9,6.9
		c-6.1,0-9.9-3.3-9.9-8.3V32H5.4v1.4c0,9.7,7.3,16.3,18.4,16.3S42,44.1,42,34.8c0-1.8-0.4-3.4-0.9-4.8c-2.2-2.2-7-4.9-17.4-4.9
		C9.1,25.2,7.3,17.3,7.1,14.9z"/>
	<path class="st1" d="M7.1,14.9c0-0.2,0-0.4,0-0.7C7,14.3,7,14.5,7.1,14.9z"/>
	<linearGradient id="SVGID_2_" gradientUnits="userSpaceOnUse" x1="7.0485" y1="15.2214" x2="41.1205" y2="15.2214">
		<stop  offset="0" style="stop-color:#0081FF"/>
		<stop  offset="0.353" style="stop-color:#0B9CFB"/>
		<stop  offset="0.828" style="stop-color:#18BDF7"/>
	</linearGradient>
	<path class="st2" d="M24.8,20.7c-9.2-1.9-9.9-3.5-9.9-6.1c0-5.2,5.4-5.9,8.7-5.9c5.7,0,8.7,2.6,8.7,7.1v1.4h8.5v-1.4
		c0-9.4-6.6-15.4-17-15.4C13.7,0.4,7,6,7,14.3c0,0.2,0,0.4,0,0.7c0.2,2.3,2.1,10.2,16.6,10.2c10.4,0,15.2,2.7,17.4,4.9
		C38.7,23.9,31.7,22,24.8,20.7z"/>
</g>
</svg>
