<?xml version="1.0" encoding="utf-8"?>
<!-- Generator: Adobe Illustrator 24.3.0, SVG Export Plug-In . SVG Version: 6.00 Build 0)  -->
<svg version="1.1" id="Layer_1" xmlns="http://www.w3.org/2000/svg" xmlns:xlink="http://www.w3.org/1999/xlink" x="0px" y="0px"
	 viewBox="0 0 50 50" style="enable-background:new 0 0 50 50;" xml:space="preserve">
<style type="text/css">
	.st0{fill:url(#SVGID_1_);}
	.st1{fill:#277EE6;}
	.st2{fill:url(#SVGID_2_);}
</style>
<g>
	<linearGradient id="SVGID_1_" gradientUnits="userSpaceOnUse" x1="40.1711" y1="40.6986" x2="13.721" y2="32.535">
		<stop  offset="0" style="stop-color:#FFFFFF"/>
		<stop  offset="1" style="stop-color:#E6E6E6"/>
	</linearGradient>
	<path class="st0" d="M5.8,14.7c0.1,3.7,1.6,6.8,4.5,9c2.6,2.1,6.4,3.3,12,4.3c10.2,1.9,10.2,4.3,10.2,6.6c0,5.7-5.4,6.9-9.9,6.9
		c-6.1,0-9.9-3.3-9.9-8.3v-1.4H4.1v1.4c0,9.7,7.3,16.3,18.4,16.3s18.2-5.7,18.2-14.9c0-1.8-0.4-3.4-0.9-4.8c-2.2-2.2-7-4.9-17.4-4.9
		C7.9,24.9,6,17.1,5.8,14.7z"/>
	<path class="st1" d="M5.8,14.7c0-0.2,0-0.4,0-0.7C5.8,14.1,5.8,14.3,5.8,14.7z"/>
	<linearGradient id="SVGID_2_" gradientUnits="userSpaceOnUse" x1="4.4665" y1="19.8516" x2="35.3249" y2="13.9738">
		<stop  offset="0" style="stop-color:#FFFFFF"/>
		<stop  offset="1" style="stop-color:#E6E6E6"/>
	</linearGradient>
	<path class="st2" d="M23.5,20.4c-9.2-1.9-9.9-3.5-9.9-6.1c0-5.2,5.4-5.9,8.7-5.9c5.7,0,8.7,2.6,8.7,7.1v1.4h8.5v-1.4
		c0-9.4-6.6-15.4-17-15.4C12.4,0.1,5.8,5.8,5.8,14.1c0,0.2,0,0.4,0,0.7C6,17.1,7.9,24.9,22.4,24.9c10.4,0,15.2,2.7,17.4,4.9
		C37.4,23.6,30.5,21.8,23.5,20.4z"/>
</g>
</svg>
