<?xml version="1.0" encoding="utf-8"?>
<!-- Generator: Adobe Illustrator 24.3.0, SVG Export Plug-In . SVG Version: 6.00 Build 0)  -->
<svg version="1.1" id="Layer_1" xmlns="http://www.w3.org/2000/svg" xmlns:xlink="http://www.w3.org/1999/xlink" x="0px" y="0px"
	 viewBox="0 0 50 43" style="enable-background:new 0 0 50 43;" xml:space="preserve">
<style type="text/css">
	.st0{fill:#C9D0DF;}
	.st1{fill:url(#SVGID_1_);}
	.st2{fill:url(#SVGID_2_);}
	.st3{fill:url(#SVGID_3_);}
	.st4{fill:url(#SVGID_4_);}
</style>
<g>
	<path class="st0" d="M34.8,17.4c0.6-1.3,0.6-2.7,0.1-4.1c-0.6-1.7-2.1-3.2-3.8-3.9H31c-1-0.3-2-0.3-3-0.2c-2.4,0.3-4.5,1.8-5.2,4.1
		l0,0c-1,3.5,0.7,7.1,3.8,8.1c0.6,0.2,1.5,0.4,2.2,0.4C31.7,21.7,34.1,19.9,34.8,17.4z M28.8,20.8c-0.5,0-1.4-0.2-1.9-0.3
		c-2.7-0.8-4.1-4-3.3-6.9c0-0.1,0-0.1,0-0.2c0.7-2.2,3-3.5,5.4-3.5c0.6,0,1.2,0.1,1.7,0.2c2.8,1.2,4.5,4.3,3.3,6.9
		C33.3,19.3,31.2,20.8,28.8,20.8z"/>
	<path class="st0" d="M38,23.3l3.8,1l2.6-7.4l-3.8-1.7c0-0.2,0-0.3,0-0.5l3.5-2.1L40.5,6l-3.6,1.6c-0.2-0.2-0.2-0.2-0.3-0.3l1-4
		l-7.4-2.6l-1.7,3.8c-0.2,0-0.3,0-0.5,0L25.9,1l-7.3,3.3l0.9,2.2l0.6,1.6c-0.2,0-1.7,1.6-1.9,1.7l2.2,2.2l0.9-1.4
		c0.3-0.3,0.9-0.9,1.4-1.4l0.7-0.5l-0.8-2l-0.5-1.3L24.7,4l1.7,3l0.9-0.2c0.5-0.2,1.4-0.2,1.9-0.2H30l1.4-3.1l2.8,0.9l-0.9,3.1
		L34,8.1c0.3,0.3,0.9,0.9,1.4,1.4l0.5,0.9L39,8.9l1.4,2.6l-2.9,1.7l0.2,1c0.2,0.5,0.2,1.4,0.2,1.9V17l3.1,1.4l-1,2.8l-3.1-0.9
		L36.4,21c-0.3,0.3-0.9,0.9-1.4,1.4l-0.7,0.5l1.4,3.1l-2.8,1.7l1.4,2.2l4.8-2.6l-1.6-3.8C37.8,23.4,37.8,23.4,38,23.3z"/>
	<path class="st0" d="M29.7,12.7c-0.3-0.2-0.5-0.2-0.9-0.2c-1.2,0-2.4,0.9-2.8,1.9c-0.5,1.6,0.2,3.3,1.7,3.8
		c1.6,0.5,3.3-0.2,3.8-1.7C32.1,15,31.2,13.2,29.7,12.7z M30.8,16.3c-0.4,1.1-1.5,1.6-2.7,1.2c-1.1-0.4-1.6-1.5-1.2-2.7
		c0.2-0.7,1.1-1.3,1.9-1.3c0.3,0,0.3,0,0.6,0.1C30.6,13.9,31.2,15.2,30.8,16.3z"/>
</g>
<linearGradient id="SVGID_1_" gradientUnits="userSpaceOnUse" x1="34.2199" y1="30.2384" x2="14.9873" y2="24.3024">
	<stop  offset="0" style="stop-color:#FFFFFF"/>
	<stop  offset="1" style="stop-color:#E6E6E6"/>
</linearGradient>
<path class="st1" d="M32.7,29.7C32.7,29.7,32.7,29.8,32.7,29.7C32.7,29.8,32.7,29.7,32.7,29.7z"/>
<linearGradient id="SVGID_2_" gradientUnits="userSpaceOnUse" x1="29.7895" y1="44.5928" x2="10.5569" y2="38.6569">
	<stop  offset="0" style="stop-color:#FFFFFF"/>
	<stop  offset="1" style="stop-color:#E6E6E6"/>
</linearGradient>
<path class="st2" d="M19.6,42.4c1.7,0,3.2-0.2,4.6-0.5C22.8,42.2,21.3,42.4,19.6,42.4C19.6,42.4,19.6,42.4,19.6,42.4z"/>
<linearGradient id="SVGID_3_" gradientUnits="userSpaceOnUse" x1="31.267" y1="36.0369" x2="12.0345" y2="30.1009">
	<stop  offset="0" style="stop-color:#FFFFFF"/>
	<stop  offset="1" style="stop-color:#E6E6E6"/>
</linearGradient>
<path class="st3" d="M31.7,31.6c0-0.6-0.1-1.2-0.2-1.8c0,0,0-0.1,0-0.1c0-0.2-0.1-0.4-0.1-0.5c0-0.2-0.1-0.4-0.2-0.6
	c0-0.1,0-0.1-0.1-0.2c0-0.1-0.1-0.2-0.2-0.4c-1.6-1.6-5.1-3.5-12.6-3.5c-10.6,0-11.9-5.7-12.1-7.4c0.1,2.7,1.1,4.9,3.2,6.5
	c0.2,0.2,0.4,0.3,0.6,0.4c0.1,0,0.1,0.1,0.1,0.1c1.9,1.2,4.5,1.9,8,2.5c4.7,0.9,6.4,1.9,7,2.9c0.4,0.6,0.4,1.3,0.4,2
	c0,4.1-4,5-7.2,5c-1.4,0-2.6-0.2-3.7-0.7C12.4,35,11,33.1,11,30.5v-1h-6v1c0,7,5.3,11.8,13.4,11.9c1.7,0,3.2-0.2,4.6-0.5
	C28.4,40.6,31.7,36.9,31.7,31.6z"/>
<linearGradient id="SVGID_4_" gradientUnits="userSpaceOnUse" x1="5.3016" y1="20.8596" x2="27.7396" y2="16.5857">
	<stop  offset="0" style="stop-color:#FFFFFF"/>
	<stop  offset="1" style="stop-color:#E6E6E6"/>
</linearGradient>
<path class="st4" d="M6.3,16.7c0,0.2,0,0.3,0,0.5c0.2,1.7,1.5,7.4,12.1,7.4c7.5,0,11,2,12.6,3.5c-0.1-0.1-0.1-0.3-0.2-0.4
	c-0.1-0.2-0.1-0.3-0.2-0.5c-2-3.8-6.8-5-11.5-5.9c-6.7-1.4-7.2-2.6-7.2-4.5c0-0.8,0.2-1.5,0.5-2c0.4-0.7,1-1.2,1.7-1.6
	c1.3-0.6,2.9-0.7,4.1-0.7c0.2,0,0.4,0,0.5,0l-0.1-0.1l-2.7-2.7l0.6-0.6C17.2,8.4,17.6,8,18,7.7l-0.5-1.2C10.7,6.9,6.3,10.9,6.3,16.7
	z"/>
</svg>
