<?xml version="1.0" encoding="utf-8"?>
<!-- Generator: Adobe Illustrator 24.3.0, SVG Export Plug-In . SVG Version: 6.00 Build 0)  -->
<svg version="1.1" id="Layer_1" xmlns="http://www.w3.org/2000/svg" xmlns:xlink="http://www.w3.org/1999/xlink" x="0px" y="0px"
	 viewBox="0 0 50 43" style="enable-background:new 0 0 50 43;" xml:space="preserve">
<style type="text/css">
	.st0{fill:#C9D0DF;}
	.st1{fill:url(#SVGID_1_);}
	.st2{fill:url(#SVGID_2_);}
	.st3{fill:#277EE6;}
	.st4{fill:url(#SVGID_3_);}
</style>
<g>
	<path class="st0" d="M38.4,23.7c1.2,0.2,2.3-0.6,2.4-1.8c0.2-1.2-0.6-2.3-1.8-2.4c-1.2-0.2-2.3,0.6-2.4,1.8
		C36.4,22.5,37.2,23.6,38.4,23.7z M38.9,20.6c0.6,0.1,1,0.6,0.9,1.2s-0.6,1-1.2,0.9c-0.6-0.1-1-0.6-0.9-1.2S38.3,20.5,38.9,20.6z"/>
	<path class="st0" d="M25.9,0.4c-0.2,0-0.3,0.2-0.4,0.3c-0.1,0.2,0,0.4,0.1,0.5l1.9,2.5l-0.6,1.5l-1.6,0.1l-1.9-2.5
		c-0.1-0.1-0.3-0.2-0.5-0.2s-0.3,0.1-0.4,0.3C22,3.8,21.9,4.7,22,5.7c0.2,1.8,1.4,3.3,3.1,4c0.7,0.3,1.5,0.4,2.3,0.3
		c0.2,0,0.4,0.1,0.5,0.2l6.9,9.4c0.1,0.1,0.1,0.3,0.1,0.5c-0.2,0.6-0.3,1.3-0.3,2c0.2,1.6,1.3,3.1,2.9,3.6c1.3,0.5,2.8,0.2,3.9-0.6
		c0.9-0.7,1.5-1.7,1.7-2.8c0-0.2,0.1-0.5,0.1-0.7c0-1.6-1-3.2-2.6-3.8c-0.6-0.3-1.3-0.4-2-0.4c-0.2,0-0.4-0.1-0.5-0.2l-5.6-7.7
		c-0.2-0.2-0.5-0.3-0.7-0.1s-0.3,0.5-0.1,0.7l5.6,7.7c0.3,0.4,0.9,0.7,1.4,0.7s1,0.1,1.5,0.3c1.1,0.5,1.9,1.6,1.9,2.9
		c0,1.1-0.5,2-1.3,2.7c-0.9,0.6-1.9,0.8-2.9,0.4c-1.2-0.4-2-1.5-2.1-2.7c-0.1-0.5,0-1,0.2-1.5s0.1-1.1-0.2-1.6l-6.9-9.4
		C28.6,9.1,28,8.9,27.4,9s-1.2,0-1.8-0.2c-1.3-0.5-2.3-1.7-2.4-3.1c0-0.4,0-0.9,0.1-1.3l1.5,2c0.1,0.2,0.3,0.2,0.5,0.2l2.2-0.2
		c0.2,0,0.4-0.1,0.4-0.3l0.9-2c0.1-0.2,0.1-0.4-0.1-0.5l-1.5-2c0.4,0,0.9,0.1,1.3,0.3c1.3,0.6,2.1,1.8,2.2,3.2
		c0,0.6-0.1,1.2-0.3,1.7c-0.3,0.5-0.2,1.2,0.1,1.6c0.2,0.2,0.5,0.3,0.7,0.1s0.3-0.5,0.1-0.7c-0.1-0.2-0.1-0.4,0-0.6
		c0.3-0.7,0.5-1.4,0.4-2.2c-0.1-1.8-1.2-3.4-2.8-4.2C27.8,0.3,26.9,0.2,25.9,0.4z"/>
</g>
<linearGradient id="SVGID_1_" gradientUnits="userSpaceOnUse" x1="35.6" y1="-91.4142" x2="35.6" y2="-91.4142" gradientTransform="matrix(1 0 0 -1 0 -63.0142)">
	<stop  offset="0" style="stop-color:#FFFFFF"/>
	<stop  offset="1" style="stop-color:#E6E6E6"/>
</linearGradient>
<path class="st1" d="M35.6,28.4L35.6,28.4L35.6,28.4L35.6,28.4z"/>
<linearGradient id="SVGID_2_" gradientUnits="userSpaceOnUse" x1="33.9813" y1="120.9662" x2="4.5947" y2="154.2342" gradientTransform="matrix(1 0 0 1 0 -108)">
	<stop  offset="0" style="stop-color:#0081FF"/>
	<stop  offset="0.353" style="stop-color:#0B9CFB"/>
	<stop  offset="0.828" style="stop-color:#18BDF7"/>
</linearGradient>
<path class="st2" d="M34.2,28c-1.6-1.6-5.1-4-12.6-4c-10.5,0-11.8-5.2-12-6.9c0.1,2.7,1.1,4.9,3.2,6.5c1.9,1.5,4.6,2.4,8.7,3.1
	c7.3,1.4,7.3,3.1,7.3,4.8c0,4.1-3.9,4.9-7.2,4.9c-4.4,0-7.2-2.4-7.2-6v-1h-6v1c0,7,5.3,11.8,13.3,11.8s13.1-4.1,13.1-10.7
	C34.8,30.1,34.5,28.9,34.2,28z"/>
<path class="st3" d="M9.6,17.2c0-0.2,0-0.3,0-0.5C9.6,16.8,9.6,16.9,9.6,17.2z"/>
<linearGradient id="SVGID_3_" gradientUnits="userSpaceOnUse" x1="9.6" y1="125.35" x2="34.2" y2="125.35" gradientTransform="matrix(1 0 0 1 0 -108)">
	<stop  offset="0" style="stop-color:#0081FF"/>
	<stop  offset="0.353" style="stop-color:#0B9CFB"/>
	<stop  offset="0.828" style="stop-color:#18BDF7"/>
</linearGradient>
<path class="st4" d="M21.6,24.5c7.5,0,11,2,12.6,3.5c-1.7-4.5-6.8-5.8-11.8-6.8c-6.6-1.4-7.2-2.6-7.2-4.4c0-3.7,3.9-4.3,6.3-4.3
	c3,0,5,1,6.1,2.7l-2.9-4.4c0,0-1.2,0.4-3-1.1c-1.4-1.1-1.5-2.4-1.5-3c-6.5,0.5-10.6,4.4-10.6,10c0,0.2,0,0.3,0,0.5
	C9.8,18.8,11.1,24.5,21.6,24.5z"/>
</svg>
