<?xml version="1.0" encoding="utf-8"?>
<!-- Generator: Adobe Illustrator 24.3.0, SVG Export Plug-In . SVG Version: 6.00 Build 0)  -->
<svg version="1.1" id="Layer_1" xmlns="http://www.w3.org/2000/svg" xmlns:xlink="http://www.w3.org/1999/xlink" x="0px" y="0px"
	 viewBox="0 0 50 43" style="enable-background:new 0 0 50 43;" xml:space="preserve">
<style type="text/css">
	.st0{fill:#C9D0DF;}
	.st1{fill:url(#SVGID_1_);}
	.st2{fill:url(#SVGID_2_);}
	.st3{fill:url(#SVGID_3_);}
	.st4{fill:#277EE6;}
	.st5{fill:url(#SVGID_4_);}
</style>
<path class="st0" d="M38,23.3l3.8,1l2.6-7.4l-3.8-1.7c0-0.2,0-0.3,0-0.5l3.5-2.1L40.5,6l-3.6,1.6c-0.2-0.2-0.2-0.2-0.3-0.3l1-4
	l-7.4-2.6l-1.7,3.8c-0.2,0-0.3,0-0.5,0L25.9,1l-7.3,3.3l0.9,2.2l0.6,1.6c-0.2,0-1.7,1.6-1.9,1.7l2.2,2.2l0.9-1.4
	c0.3-0.3,0.9-0.9,1.4-1.4l0.7-0.5l-0.8-2l-0.5-1.3L24.7,4l1.7,3l0.9-0.2c0.5-0.2,1.4-0.2,1.9-0.2H30l1.4-3.1l2.8,0.9l-0.9,3.1
	L34,8.1c0.3,0.3,0.9,0.9,1.4,1.4l0.5,0.9L39,8.9l1.4,2.6l-2.9,1.7l0.2,1c0.2,0.5,0.2,1.4,0.2,1.9V17l3.1,1.4l-1,2.8l-3.1-0.9
	L36.4,21c-0.3,0.3-0.9,0.9-1.4,1.4l-0.7,0.5l1.4,3.1l-2.8,1.7l1.4,2.2l4.8-2.6l-1.6-3.8C37.8,23.4,37.8,23.4,38,23.3z"/>
<linearGradient id="SVGID_1_" gradientUnits="userSpaceOnUse" x1="34.2332" y1="246.1954" x2="15.0006" y2="240.2596" gradientTransform="matrix(1 0 0 1 0 -216)">
	<stop  offset="0" style="stop-color:#FFFFFF"/>
	<stop  offset="1" style="stop-color:#E6E6E6"/>
</linearGradient>
<path class="st1" d="M32.7,29.7C32.7,29.7,32.7,29.8,32.7,29.7C32.7,29.8,32.7,29.7,32.7,29.7z"/>
<linearGradient id="SVGID_2_" gradientUnits="userSpaceOnUse" x1="29.7917" y1="260.5857" x2="10.5591" y2="254.6498" gradientTransform="matrix(1 0 0 1 0 -216)">
	<stop  offset="0" style="stop-color:#FFFFFF"/>
	<stop  offset="1" style="stop-color:#E6E6E6"/>
</linearGradient>
<path class="st2" d="M19.6,42.4c1.7,0,3.2-0.2,4.6-0.5C22.8,42.2,21.3,42.4,19.6,42.4L19.6,42.4z"/>
<linearGradient id="SVGID_3_" gradientUnits="userSpaceOnUse" x1="30.5656" y1="-76.1982" x2="1.1766" y2="-109.4688" gradientTransform="matrix(1 0 0 -1 0 -63.0142)">
	<stop  offset="0" style="stop-color:#0081FF"/>
	<stop  offset="0.353" style="stop-color:#0B9CFB"/>
	<stop  offset="0.828" style="stop-color:#18BDF7"/>
</linearGradient>
<path class="st3" d="M18.2,24.2c-10.5,0-11.8-5.2-12-6.9c0.1,2.7,1.1,4.9,3.2,6.5c1.9,1.5,4.6,2.4,8.7,3.1c7.3,1.4,7.3,3.1,7.3,4.8
	c0,4.1-3.9,4.9-7.2,4.9c-4.4,0-7.2-2.4-7.2-6v-1H5v1c0,7,5.3,11.8,13.3,11.8s13.1-4.1,13.1-10.7c0-1.3-0.3-2.4-0.6-3.4
	C29.2,26.7,25.7,24.2,18.2,24.2z"/>
<path class="st4" d="M6.2,17.3c0-0.2,0-0.3,0-0.5C6.2,16.8,6.2,17,6.2,17.3z"/>
<linearGradient id="SVGID_4_" gradientUnits="userSpaceOnUse" x1="6.2" y1="-80.5642" x2="30.8" y2="-80.5642" gradientTransform="matrix(1 0 0 -1 0 -63.0142)">
	<stop  offset="0" style="stop-color:#0081FF"/>
	<stop  offset="0.353" style="stop-color:#0B9CFB"/>
	<stop  offset="0.828" style="stop-color:#18BDF7"/>
</linearGradient>
<path class="st5" d="M19,21.4c-6.6-1.4-7.2-2.6-7.2-4.4c0-3.7,3.9-4.3,6.3-4.3c0.3,0,0.6,0,1,0.1l-3.2-3.1l2.1-2l-0.3-0.9
	C10.7,7,6.2,11,6.2,16.8c0,0.2,0,0.3,0,0.5c0.2,1.7,1.5,7.4,12,7.4c7.5,0,11,2.1,12.6,3.6C29,23.8,24,22.4,19,21.4z"/>
<path class="st0" d="M29,9.1c-3.7,0-6.6,3-6.6,6.6c0,3.7,3,6.6,6.6,6.6c3.7,0,6.6-3,6.6-6.6C35.6,12.1,32.7,9.1,29,9.1z M29,21.3
	c-3.1,0-5.5-2.5-5.5-5.5c0-3.1,2.5-5.5,5.5-5.5c3.1,0,5.5,2.5,5.5,5.5C34.6,18.8,32.1,21.3,29,21.3z"/>
<path class="st0" d="M29,12.2c-2,0-3.6,1.6-3.6,3.6s1.6,3.6,3.6,3.6c2,0,3.6-1.6,3.6-3.6S31,12.2,29,12.2z M29,18.3
	c-1.4,0-2.5-1.1-2.5-2.5s1.1-2.5,2.5-2.5c1.4,0,2.5,1.1,2.5,2.5S30.4,18.3,29,18.3z"/>
</svg>
